<mxfile host="app.diagrams.net" modified="2022-06-19T15:32:24.116Z" agent="5.0 (Macintosh; Intel Mac OS X 10_15_7) AppleWebKit/537.36 (KHTML, like Gecko) Chrome/102.0.0.0 Safari/537.36" etag="g_9C70NoiTQQtakljYEj" version="20.0.1" type="github">
  <diagram id="Y5NFMzPjso2iboIROrrn" name="Page-1">
    <mxGraphModel dx="916" dy="772" grid="1" gridSize="10" guides="1" tooltips="1" connect="1" arrows="1" fold="1" page="1" pageScale="1" pageWidth="827" pageHeight="1169" math="0" shadow="0">
      <root>
        <mxCell id="0" />
        <mxCell id="1" parent="0" />
        <mxCell id="0oEXbh-QknlMhhKbKPOi-18" value="" style="rounded=1;whiteSpace=wrap;html=1;fontSize=16;" vertex="1" parent="1">
          <mxGeometry x="90" y="100" width="720" height="460" as="geometry" />
        </mxCell>
        <mxCell id="0oEXbh-QknlMhhKbKPOi-15" value="MySQL" style="rounded=0;whiteSpace=wrap;html=1;fontSize=16;verticalAlign=top;fillColor=#f9f7ed;strokeColor=#36393d;" vertex="1" parent="1">
          <mxGeometry x="130" y="140" width="640" height="170" as="geometry" />
        </mxCell>
        <mxCell id="0oEXbh-QknlMhhKbKPOi-1" value="线程" style="rounded=0;whiteSpace=wrap;html=1;fontSize=16;verticalAlign=top;fillColor=#ffe6cc;strokeColor=#d79b00;" vertex="1" parent="1">
          <mxGeometry x="150" y="190" width="160" height="100" as="geometry" />
        </mxCell>
        <mxCell id="0oEXbh-QknlMhhKbKPOi-9" value="write" style="edgeStyle=orthogonalEdgeStyle;rounded=0;orthogonalLoop=1;jettySize=auto;html=1;entryX=0.131;entryY=0;entryDx=0;entryDy=0;entryPerimeter=0;fontSize=16;" edge="1" parent="1" source="0oEXbh-QknlMhhKbKPOi-2" target="0oEXbh-QknlMhhKbKPOi-7">
          <mxGeometry relative="1" as="geometry" />
        </mxCell>
        <mxCell id="0oEXbh-QknlMhhKbKPOi-2" value="binlog cache" style="rounded=1;whiteSpace=wrap;html=1;fontSize=16;fillColor=#d5e8d4;strokeColor=#82b366;" vertex="1" parent="1">
          <mxGeometry x="170" y="220" width="120" height="60" as="geometry" />
        </mxCell>
        <mxCell id="0oEXbh-QknlMhhKbKPOi-3" value="线程" style="rounded=0;whiteSpace=wrap;html=1;fontSize=16;verticalAlign=top;fillColor=#ffe6cc;strokeColor=#d79b00;" vertex="1" parent="1">
          <mxGeometry x="375" y="190" width="160" height="100" as="geometry" />
        </mxCell>
        <mxCell id="0oEXbh-QknlMhhKbKPOi-10" value="&lt;meta charset=&quot;utf-8&quot;&gt;&lt;span style=&quot;color: rgb(0, 0, 0); font-family: Helvetica; font-size: 16px; font-style: normal; font-variant-ligatures: normal; font-variant-caps: normal; font-weight: 400; letter-spacing: normal; orphans: 2; text-align: center; text-indent: 0px; text-transform: none; widows: 2; word-spacing: 0px; -webkit-text-stroke-width: 0px; background-color: rgb(255, 255, 255); text-decoration-thickness: initial; text-decoration-style: initial; text-decoration-color: initial; float: none; display: inline !important;&quot;&gt;write&lt;/span&gt;" style="edgeStyle=orthogonalEdgeStyle;rounded=0;orthogonalLoop=1;jettySize=auto;html=1;entryX=0.5;entryY=0;entryDx=0;entryDy=0;fontSize=16;" edge="1" parent="1" source="0oEXbh-QknlMhhKbKPOi-4" target="0oEXbh-QknlMhhKbKPOi-7">
          <mxGeometry relative="1" as="geometry" />
        </mxCell>
        <mxCell id="0oEXbh-QknlMhhKbKPOi-4" value="binlog cache" style="rounded=1;whiteSpace=wrap;html=1;fontSize=16;fillColor=#d5e8d4;strokeColor=#82b366;" vertex="1" parent="1">
          <mxGeometry x="395" y="220" width="120" height="60" as="geometry" />
        </mxCell>
        <mxCell id="0oEXbh-QknlMhhKbKPOi-5" value="线程" style="rounded=0;whiteSpace=wrap;html=1;fontSize=16;verticalAlign=top;fillColor=#ffe6cc;strokeColor=#d79b00;" vertex="1" parent="1">
          <mxGeometry x="590" y="190" width="160" height="100" as="geometry" />
        </mxCell>
        <mxCell id="0oEXbh-QknlMhhKbKPOi-11" value="&lt;meta charset=&quot;utf-8&quot;&gt;&lt;span style=&quot;color: rgb(0, 0, 0); font-family: Helvetica; font-size: 16px; font-style: normal; font-variant-ligatures: normal; font-variant-caps: normal; font-weight: 400; letter-spacing: normal; orphans: 2; text-align: center; text-indent: 0px; text-transform: none; widows: 2; word-spacing: 0px; -webkit-text-stroke-width: 0px; background-color: rgb(255, 255, 255); text-decoration-thickness: initial; text-decoration-style: initial; text-decoration-color: initial; float: none; display: inline !important;&quot;&gt;write&lt;/span&gt;" style="edgeStyle=orthogonalEdgeStyle;rounded=0;orthogonalLoop=1;jettySize=auto;html=1;entryX=0.852;entryY=0;entryDx=0;entryDy=0;entryPerimeter=0;fontSize=16;" edge="1" parent="1" source="0oEXbh-QknlMhhKbKPOi-6" target="0oEXbh-QknlMhhKbKPOi-7">
          <mxGeometry relative="1" as="geometry" />
        </mxCell>
        <mxCell id="0oEXbh-QknlMhhKbKPOi-6" value="binlog cache" style="rounded=1;whiteSpace=wrap;html=1;fontSize=16;fillColor=#d5e8d4;strokeColor=#82b366;" vertex="1" parent="1">
          <mxGeometry x="610" y="220" width="120" height="60" as="geometry" />
        </mxCell>
        <mxCell id="0oEXbh-QknlMhhKbKPOi-12" value="fsync" style="edgeStyle=orthogonalEdgeStyle;rounded=0;orthogonalLoop=1;jettySize=auto;html=1;entryX=0.5;entryY=0;entryDx=0;entryDy=0;fontSize=16;" edge="1" parent="1" source="0oEXbh-QknlMhhKbKPOi-7" target="0oEXbh-QknlMhhKbKPOi-8">
          <mxGeometry relative="1" as="geometry" />
        </mxCell>
        <mxCell id="0oEXbh-QknlMhhKbKPOi-7" value="内核 &lt;br&gt;page cache" style="rounded=0;whiteSpace=wrap;html=1;fontSize=16;fillColor=#dae8fc;strokeColor=#6c8ebf;" vertex="1" parent="1">
          <mxGeometry x="150" y="360" width="610" height="60" as="geometry" />
        </mxCell>
        <mxCell id="0oEXbh-QknlMhhKbKPOi-8" value="磁盘" style="rounded=0;whiteSpace=wrap;html=1;fontSize=16;fillColor=#f5f5f5;fontColor=#333333;strokeColor=#666666;" vertex="1" parent="1">
          <mxGeometry x="150" y="470" width="610" height="60" as="geometry" />
        </mxCell>
      </root>
    </mxGraphModel>
  </diagram>
</mxfile>
